<svg fill="#000000" xmlns="http://www.w3.org/2000/svg"  viewBox="0 0 24 24" width="36px" height="38px" fill-rule="evenodd" clip-rule="evenodd"><path d="M12,6.25c-3.174,0 -5.75,2.576 -5.75,5.75c-0,3.174 2.576,5.75 5.75,5.75c3.174,0 5.75,-2.576 5.75,-5.75c-0,-3.174 -2.576,-5.75 -5.75,-5.75Zm-0,1.5c2.346,0 4.25,1.904 4.25,4.25c-0,2.346 -1.904,4.25 -4.25,4.25c-2.346,0 -4.25,-1.904 -4.25,-4.25c-0,-2.346 1.904,-4.25 4.25,-4.25Z"/><path d="M19.5,16.25c-0.464,0 -0.909,-0.184 -1.237,-0.513c-0.329,-0.328 -0.513,-0.773 -0.513,-1.237l-0,-6.5c0,-0.414 -0.336,-0.75 -0.75,-0.75c-0.414,-0 -0.75,0.336 -0.75,0.75l-0,6.5c-0,0.862 0.342,1.689 0.952,2.298c0.609,0.61 1.436,0.952 2.298,0.952c1.795,-0 3.25,-1.455 3.25,-3.25l-0,-4.5c0,-2.321 -0.922,-4.546 -2.563,-6.187c-1.641,-1.641 -3.866,-2.563 -6.187,-2.563c-0.986,0 -2,0 -3,0c-2.586,-0 -5.066,1.027 -6.894,2.856c-1.829,1.828 -2.856,4.308 -2.856,6.894l-0,2c-0,2.586 1.027,5.066 2.856,6.894c1.828,1.829 4.308,2.856 6.894,2.856l4,0c0.414,-0 0.75,-0.336 0.75,-0.75c-0,-0.414 -0.336,-0.75 -0.75,-0.75l-4,0c-2.188,-0 -4.286,-0.869 -5.834,-2.416c-1.547,-1.548 -2.416,-3.646 -2.416,-5.834l-0,-2c-0,-2.188 0.869,-4.286 2.416,-5.834c1.548,-1.547 3.646,-2.416 5.834,-2.416c1,0 2.014,0 3,-0c1.923,0 3.767,0.764 5.127,2.123c1.359,1.36 2.123,3.204 2.123,5.127c-0,0 -0,4.5 -0,4.5c-0,0.967 -0.784,1.75 -1.75,1.75Z"/></svg>