<svg fill="#000000" xmlns="http://www.w3.org/2000/svg"  viewBox="0 0 24 24" width="48px" height="48px"><path d="M 7.4648438 0.009765625 C 7.3410156 -0.006578125 7.2144375 -0.00346875 7.0859375 0.01953125 C 6.5659375 0.11253125 6.1720312 0.50825 6.0820312 1.03125 L 3.0117188 18.851562 C 3.0096319 18.863584 3.0132132 18.874741 3.0117188 18.886719 C 3.0058692 18.933103 3.0108467 18.977417 3.0136719 19.023438 C 3.0148168 19.04607 3.0045895 19.067185 3.0078125 19.089844 C 3.0092394 19.099919 3.0177076 19.10723 3.0195312 19.117188 C 3.0236865 19.139323 3.0271138 19.160137 3.0332031 19.181641 C 3.0445806 19.222053 3.0660174 19.256913 3.0839844 19.294922 C 3.0954526 19.319049 3.1032584 19.344469 3.1171875 19.367188 C 3.1257443 19.381408 3.1272423 19.398497 3.1367188 19.412109 C 3.1430236 19.421166 3.1534562 19.426777 3.1601562 19.435547 C 3.1885297 19.472379 3.2262753 19.499818 3.2617188 19.53125 C 3.2947657 19.560611 3.3231558 19.593881 3.3613281 19.617188 C 3.3713213 19.623375 3.3763902 19.634881 3.3867188 19.640625 L 10.556641 23.625 C 11.008641 23.876 11.504 24.001953 12 24.001953 C 12.496 24.001953 12.990359 23.876953 13.443359 23.626953 L 20.615234 19.640625 C 20.893234 19.485625 21.044234 19.172375 20.990234 18.859375 L 18.722656 5.5605469 C 18.644656 5.0975469 18.318047 4.7230313 17.873047 4.5820312 C 17.433047 4.4410313 16.955859 4.559625 16.630859 4.890625 L 14.972656 6.5683594 L 13.095703 3.2207031 C 12.870703 2.8207031 12.397094 2.5798906 11.996094 2.5878906 C 11.540094 2.5968906 11.128875 2.8566719 10.921875 3.2636719 L 10.4375 4.2148438 L 8.3671875 0.62109375 C 8.1699375 0.27759375 7.8363281 0.058796875 7.4648438 0.009765625 z M 7.4355469 2.0078125 L 9.6230469 5.8085938 L 5.3300781 14.228516 L 7.4355469 2.0078125 z M 12.03125 4.3886719 L 13.875 7.6777344 L 6.6054688 15.029297 L 12.03125 4.3886719 z M 17.330078 6.3164062 L 19.423828 18.587891 L 12.716797 22.314453 C 12.268797 22.563453 11.732156 22.563453 11.285156 22.314453 L 4.9785156 18.808594 L 17.330078 6.3164062 z"/></svg>