<svg fill="#fffcfa" xmlns="http://www.w3.org/2000/svg"  viewBox="0 0 64 64" width="48px" height="48px">
<!-- <defs>
    <linearGradient id="a" x1="0%" x2="100%" y1="0%" y2="100%">
        <stop offset="0%" stop-color="#00e6fb"/>
        <stop offset="100%" stop-color="#eb00ef"/>
    </linearGradient>
</defs> -->

<path d="M32.043 55.034C19.337 55.034 9 44.697 9 31.991c0-11.063 7.887-20.58 18.752-22.63C28.35 9.249 28.955 9.41 29.415 9.8c.46.389.72.965.708 1.567-.323 15.745 7.489 25.58 21.432 26.985.635.064 1.201.427 1.524.977s.364 1.222.11 1.808C49.534 49.579 41.233 55.034 32.043 55.034zM26.141 13.893C18.399 16.406 13 23.669 13 31.991c0 10.5 8.543 19.043 19.043 19.043 6.693 0 12.816-3.502 16.243-9.11C34.762 39.413 26.667 29.186 26.141 13.893zM42.515 13.838l2.062.687c.456.152.456.797 0 .949l-2.062.687c-.634.211-1.121.726-1.297 1.371l-.736 2.699c-.134.491-.831.491-.965 0l-.736-2.699c-.176-.645-.663-1.16-1.297-1.371l-2.062-.687c-.456-.152-.456-.797 0-.949l2.062-.687c.634-.211 1.121-.726 1.297-1.371l.736-2.699c.134-.491.831-.491.965 0l.736 2.699C41.394 13.112 41.881 13.627 42.515 13.838zM52.515 24.838l2.062.687c.456.152.456.797 0 .949l-2.062.687c-.634.211-1.121.726-1.297 1.371l-.736 2.699c-.134.491-.831.491-.965 0l-.736-2.699c-.176-.645-.663-1.16-1.297-1.371l-2.062-.687c-.456-.152-.456-.797 0-.949l2.062-.687c.634-.211 1.121-.726 1.297-1.371l.736-2.699c.134-.491.831-.491.965 0l.736 2.699C51.394 24.112 51.881 24.627 52.515 24.838z"/></svg>